<svg xmlns="http://www.w3.org/2000/svg" width="145.535" height="23.741" viewBox="0 0 145.535 23.741">
  <g id="Groupe_1" data-name="Groupe 1" transform="translate(1502 -2950)">
    <g id="manage_2" data-name="manage 2" transform="translate(-1476.8 2950)">
      <path id="manage" d="M89.9,23.294a11.79,11.79,0,0,1-3.121-1.274l.892-3.342a18.055,18.055,0,0,0,2.8,1.24,9.066,9.066,0,0,0,2.816.4,5.247,5.247,0,0,0,3.633-1.158,3.751,3.751,0,0,0,1.288-2.912V14.493h-.066a6.619,6.619,0,0,1-5,2.019,8.468,8.468,0,0,1-4.129-1,7.218,7.218,0,0,1-2.882-2.87,8.607,8.607,0,0,1-1.049-4.285,9.122,9.122,0,0,1,1-4.293,7.387,7.387,0,0,1,2.8-2.986A7.766,7.766,0,0,1,92.942,0a7.619,7.619,0,0,1,2.767.513A7.063,7.063,0,0,1,98.062,2h.066V.265h3.783V15.089a13.316,13.316,0,0,1-.281,2.829,8.141,8.141,0,0,1-.917,2.382,6.384,6.384,0,0,1-1.6,1.845,7.176,7.176,0,0,1-2.386,1.174,11.332,11.332,0,0,1-3.221.422A14.368,14.368,0,0,1,89.9,23.294Zm18.508-7.279a7.583,7.583,0,0,1-3.022-3,8.985,8.985,0,0,1-1.106-4.492,9.541,9.541,0,0,1,.611-3.458,7.879,7.879,0,0,1,1.685-2.7,7.577,7.577,0,0,1,2.56-1.729,8.693,8.693,0,0,1,7.415.455,7.2,7.2,0,0,1,2.808,2.962,9.207,9.207,0,0,1,.974,4.285,9.367,9.367,0,0,1-.1,1.5H108.213a4.593,4.593,0,0,0,1.627,2.763,4.777,4.777,0,0,0,3.08,1.01,4.993,4.993,0,0,0,4.112-1.952l2.642,2.266a7.951,7.951,0,0,1-2.882,2.283,9.307,9.307,0,0,1-4.071.843A8.876,8.876,0,0,1,108.411,16.015Zm-37.75.438a7.342,7.342,0,0,1-2.535-1.7,7.836,7.836,0,0,1-1.668-2.68A9.588,9.588,0,0,1,65.847,8.6a9.586,9.586,0,0,1,.611-3.442,8.188,8.188,0,0,1,1.668-2.73A7.64,7.64,0,0,1,70.653.662,7.756,7.756,0,0,1,73.806.016a6.329,6.329,0,0,1,5.1,2.234h.066V.265h3.782V16.792H79.142V14.576h-.049a6.218,6.218,0,0,1-5.252,2.481A8.311,8.311,0,0,1,70.661,16.453Zm-37.925,0a7.339,7.339,0,0,1-2.534-1.7,7.851,7.851,0,0,1-1.669-2.68A9.607,9.607,0,0,1,27.922,8.6a9.605,9.605,0,0,1,.611-3.442A8.2,8.2,0,0,1,30.2,2.432,7.636,7.636,0,0,1,32.728.662,7.76,7.76,0,0,1,35.882.016a6.326,6.326,0,0,1,5.1,2.234h.067V.265h3.782V16.792H41.216V14.576h-.049a6.217,6.217,0,0,1-5.251,2.481A8.316,8.316,0,0,1,32.736,16.453Zm27.1.356V8.041a8.818,8.818,0,0,0-.231-2.184,3.254,3.254,0,0,0-.71-1.414,2.806,2.806,0,0,0-1.114-.753,4.491,4.491,0,0,0-1.528-.231,3.942,3.942,0,0,0-3.113,1.323,5.429,5.429,0,0,0-1.165,3.706v8.305H48.2V.265h3.782V2.531h.05A6.962,6.962,0,0,1,54.506.662,7.372,7.372,0,0,1,57.561.016a5.784,5.784,0,0,1,4.451,1.729q1.611,1.729,1.61,5.319v9.744Zm-37.941,0V8.189q0-4.732-3.236-4.731a3.389,3.389,0,0,0-2.75,1.364,5.788,5.788,0,0,0-1.1,3.731v8.255H11.032V8.189q0-4.732-3.287-4.731A3.517,3.517,0,0,0,4.9,4.822,5.729,5.729,0,0,0,3.782,8.554v8.239H0V.265H3.782V2.548h.049A6.993,6.993,0,0,1,6.185.67a6.337,6.337,0,0,1,2.8-.653,5.138,5.138,0,0,1,4.921,2.747h.066A6.822,6.822,0,0,1,16.532.72a7.882,7.882,0,0,1,3.352-.7,5.286,5.286,0,0,1,4.294,1.8,8.292,8.292,0,0,1,1.5,5.418v9.579Z" fill="#fff"/>
    </g>
    <g id="Group_5" data-name="Group 5" transform="translate(-1502 2950)">
      <g id="Group_4" data-name="Group 4">
        <path id="Combined_Shape" data-name="Combined Shape" d="M0,13.143a2.822,2.822,0,0,1,2.786-2.857,2.858,2.858,0,0,1,0,5.714A2.823,2.823,0,0,1,0,13.143ZM10.029,2.858a2.786,2.786,0,1,1,5.571,0,2.786,2.786,0,1,1-5.571,0ZM0,2.858A2.822,2.822,0,0,1,2.786,0,2.822,2.822,0,0,1,5.571,2.858,2.821,2.821,0,0,1,2.786,5.714,2.822,2.822,0,0,1,0,2.858Z" transform="translate(0 0)" fill="#f3603c"/>
        <ellipse id="Oval_Copy_3" data-name="Oval Copy 3" cx="2.786" cy="2.857" rx="2.786" ry="2.857" transform="translate(10.029 10.4)" fill="#f3603c" opacity="0.5"/>
      </g>
    </g>
    <path id="Path" d="M4.74,10.158a4.492,4.492,0,0,1-3.419-1.4A5.026,5.026,0,0,1,0,5.162,5.174,5.174,0,0,1,1.363,1.415,4.52,4.52,0,0,1,4.756,0,4.3,4.3,0,0,1,8.1,1.481,5.306,5.306,0,0,1,9.43,5.162a4.94,4.94,0,0,1-1.363,3.6A4.469,4.469,0,0,1,4.74,10.158Z" transform="translate(-1445.03 2953.458)" fill="#1d1e25" stroke="rgba(0,0,0,0)" stroke-miterlimit="10" stroke-width="1"/>
    <path id="Path-2" data-name="Path" d="M4.74,10.158a4.492,4.492,0,0,1-3.419-1.4A5.026,5.026,0,0,1,0,5.162,5.174,5.174,0,0,1,1.363,1.415,4.52,4.52,0,0,1,4.756,0,4.3,4.3,0,0,1,8.1,1.481,5.306,5.306,0,0,1,9.43,5.162a4.94,4.94,0,0,1-1.363,3.6A4.469,4.469,0,0,1,4.74,10.158Z" transform="translate(-1407.03 2953.458)" fill="#1d1e25" stroke="rgba(0,0,0,0)" stroke-miterlimit="10" stroke-width="1"/>
    <path id="Path-3" data-name="Path" d="M4.74,10.158a4.492,4.492,0,0,1-3.419-1.4A5.026,5.026,0,0,1,0,5.162,5.174,5.174,0,0,1,1.363,1.415,4.52,4.52,0,0,1,4.756,0,4.3,4.3,0,0,1,8.1,1.481,5.306,5.306,0,0,1,9.43,5.162a4.94,4.94,0,0,1-1.363,3.6A4.469,4.469,0,0,1,4.74,10.158Z" transform="translate(-1388.03 2953.458)" fill="#1d1e25" stroke="rgba(0,0,0,0)" stroke-miterlimit="10" stroke-width="1"/>
    <path id="Path-4" data-name="Path" d="M8.258,3.325H0A4.27,4.27,0,0,1,1.536.869,4.339,4.339,0,0,1,4.244,0,3.857,3.857,0,0,1,6.862.893a4.468,4.468,0,0,1,1.4,2.432Z" transform="translate(-1368.521 2953.458)" fill="#1d1e25"/>
  </g>
</svg>
